<svg width="3" height="8" viewBox="0 0 3 8" fill="none" xmlns="http://www.w3.org/2000/svg">
<path fill-rule="evenodd" clip-rule="evenodd" d="M1.5 3C1.92857 3 2.28571 2.8557 2.57143 2.56711C2.85714 2.27852 3 1.92282 3 1.5C3 1.07047 2.85884 0.713087 2.57653 0.427852C2.29422 0.142617 1.93537 0 1.5 0C1.07143 0 0.714286 0.142617 0.428571 0.427852C0.142857 0.713087 0 1.07047 0 1.5C0 1.92282 0.142857 2.27852 0.428571 2.56711C0.714286 2.8557 1.07143 3 1.5 3Z" fill="#808089"/>
<path fill-rule="evenodd" clip-rule="evenodd" d="M1.5 8C1.92857 8 2.28571 7.8557 2.57143 7.56711C2.85714 7.27852 3 6.92282 3 6.5C3 6.07718 2.85714 5.72148 2.57143 5.43289C2.28571 5.1443 1.92857 5 1.5 5C1.07143 5 0.714286 5.1443 0.428571 5.43289C0.142857 5.72148 0 6.07718 0 6.5C0 6.92282 0.142857 7.27852 0.428571 7.56711C0.714286 7.8557 1.07143 8 1.5 8Z" fill="#808089"/>
</svg>
